<?xml version="1.0" encoding="UTF-8"?>
<!DOCTYPE svg PUBLIC "-//W3C//DTD SVG 1.1//EN" "http://www.w3.org/Graphics/SVG/1.1/DTD/svg11.dtd">
<!-- Creator: CorelDRAW X7 -->
<svg xmlns="http://www.w3.org/2000/svg" xml:space="preserve" width="297mm" height="210mm" version="1.1" style="shape-rendering:geometricPrecision; text-rendering:geometricPrecision; image-rendering:optimizeQuality; fill-rule:evenodd; clip-rule:evenodd"
viewBox="0 0 29700 21000"
 xmlns:xlink="http://www.w3.org/1999/xlink">
 <defs>
  <style type="text/css">
   <![CDATA[
    .fil0 {fill:black}
   ]]>
  </style>
 </defs>
 <g id="Layer_x0020_1">
  <metadata id="CorelCorpID_0Corel-Layer"/>
  <g id="_1854532471376">
   <path class="fil0" d="M17133 6724c146,0 264,118 264,263l0 966 966 0c145,0 263,118 263,264 0,145 -118,263 -263,263l-966 0 0 966c0,146 -118,264 -264,264 -145,0 -263,-118 -263,-264l0 -966 -966 0c-146,0 -264,-118 -264,-263 0,-146 118,-264 264,-264l966 0 0 -966c0,-145 118,-263 263,-263z"/>
   <path class="fil0" d="M14850 6724l-20 0c-811,0 -1447,0 -1942,66 -508,69 -908,211 -1223,525 -314,315 -456,715 -525,1223 -66,495 -66,1131 -66,1942l0 40c0,811 0,1447 66,1942 69,508 211,908 525,1223 315,314 715,456 1223,525 495,66 1131,66 1942,66l40 0c811,0 1447,0 1942,-66 508,-69 908,-211 1223,-525 314,-315 456,-715 525,-1223 66,-495 66,-1131 66,-1942l0 -20c0,-146 -118,-264 -263,-264 -146,0 -264,118 -264,264 0,835 0,1436 -62,1892 -2,18 -4,36 -7,53l-974 -877c-457,-411 -1137,-451 -1639,-98l-105 73c-175,123 -412,102 -563,-48l-1507 -1507c-399,-399 -1039,-420 -1463,-49l-178 156c1,-630 11,-1108 62,-1487 60,-449 175,-720 375,-920 200,-200 471,-315 920,-375 456,-62 1057,-62 1892,-62 146,0 264,-118 264,-264 0,-145 -118,-263 -264,-263zm-3187 5668c60,449 175,720 375,920 200,200 471,315 920,375 456,62 1057,62 1892,62 835,0 1436,0 1892,-62 449,-60 720,-175 920,-375 86,-85 156,-184 212,-304 -13,-8 -26,-18 -39,-29l-1132 -1019c-274,-246 -682,-271 -983,-59l-105 73c-384,270 -907,225 -1239,-107l-1507 -1507c-202,-202 -527,-213 -743,-24l-525 459c1,685 8,1196 62,1597z"/>
  </g>
 </g>
</svg>
