<?xml version="1.0" encoding="UTF-8"?>
<!DOCTYPE svg PUBLIC "-//W3C//DTD SVG 1.1//EN" "http://www.w3.org/Graphics/SVG/1.1/DTD/svg11.dtd">
<!-- Creator: CorelDRAW X7 -->
<svg xmlns="http://www.w3.org/2000/svg" xml:space="preserve" width="297mm" height="210mm" version="1.1" style="shape-rendering:geometricPrecision; text-rendering:geometricPrecision; image-rendering:optimizeQuality; fill-rule:evenodd; clip-rule:evenodd"
viewBox="0 0 29700 21000"
 xmlns:xlink="http://www.w3.org/1999/xlink">
 <defs>
  <style type="text/css">
   <![CDATA[
    .fil0 {fill:black}
   ]]>
  </style>
 </defs>
 <g id="Layer_x0020_1">
  <metadata id="CorelCorpID_0Corel-Layer"/>
  <g id="_1854526507312">
   <path class="fil0" d="M13947 10637c-125,0 -226,101 -226,226 0,124 101,225 226,225l1806 0c125,0 226,-101 226,-225 0,-125 -101,-226 -226,-226l-1806 0z"/>
   <path class="fil0" d="M14850 7264c-213,0 -407,61 -617,163 -203,99 -438,245 -731,427l-622 386c-277,172 -499,310 -670,441 -177,135 -314,274 -412,453 -98,179 -142,370 -163,596 -21,218 -21,485 -21,820l0 486c0,573 0,1025 46,1379 47,363 146,656 370,887 225,233 511,337 866,386 343,48 782,48 1334,48l1239 0c553,0 992,0 1335,-48 355,-49 641,-153 866,-386 224,-231 323,-524 370,-887 46,-354 46,-806 46,-1379l0 -486c0,-335 0,-602 -21,-820 -21,-226 -65,-417 -163,-596 -98,-179 -235,-318 -412,-453 -171,-131 -393,-269 -670,-441l-622 -386c-293,-182 -528,-328 -731,-427 -210,-102 -404,-163 -617,-163zm-1120 980c306,-190 521,-323 701,-411 175,-85 299,-117 419,-117 120,0 244,32 419,117 180,88 395,221 701,411l602 373c289,180 492,306 644,422 147,113 232,206 290,312 58,106 92,231 110,421 18,195 18,441 18,789l0 458c0,594 0,1017 -42,1338 -41,315 -118,498 -247,631 -128,133 -302,211 -603,253 -309,43 -716,43 -1290,43l-1204 0c-574,0 -981,0 -1290,-43 -302,-42 -475,-120 -603,-253 -129,-133 -206,-316 -247,-631 -42,-321 -42,-744 -42,-1338l0 -458c0,-348 0,-594 18,-789 18,-190 52,-315 110,-421 58,-106 143,-199 290,-312 152,-116 355,-242 644,-422l602 -373z"/>
   <path class="fil0" d="M15612 13240c0,158 101,286 225,286 125,0 226,-128 226,-286l0 -2290c0,-157 -101,-286 -226,-286 -124,0 -225,129 -225,286l0 2290z"/>
   <path class="fil0" d="M13656 13240c0,158 101,286 225,286 125,0 226,-128 226,-286l0 -2290c0,-157 -101,-286 -226,-286 -124,0 -225,129 -225,286l0 2290z"/>
  </g>
 </g>
</svg>
