<?xml version="1.0" encoding="UTF-8"?>
<!DOCTYPE svg PUBLIC "-//W3C//DTD SVG 1.1//EN" "http://www.w3.org/Graphics/SVG/1.1/DTD/svg11.dtd">
<!-- Creator: CorelDRAW X7 -->
<svg xmlns="http://www.w3.org/2000/svg" xml:space="preserve" width="9mm" height="9mm" version="1.1" style="shape-rendering:geometricPrecision; text-rendering:geometricPrecision; image-rendering:optimizeQuality; fill-rule:evenodd; clip-rule:evenodd"
viewBox="0 0 900 900"
 xmlns:xlink="http://www.w3.org/1999/xlink">
 <defs>
  <style type="text/css">
   <![CDATA[
    .fil0 {fill:black}
   ]]>
  </style>
 </defs>
 <g id="Layer_x0020_1">
  <metadata id="CorelCorpID_0Corel-Layer"/>
  <g id="add-post.svg">
   <path class="fil0" d="M708 23c16,0 30,14 30,30l0 109 109 0c16,0 30,14 30,30 0,16 -14,30 -30,30l-109 0 0 109c0,16 -14,30 -30,30 -16,0 -30,-14 -30,-30l0 -109 -109 0c-16,0 -30,-14 -30,-30 0,-16 14,-30 30,-30l109 0 0 -109c0,-16 14,-30 30,-30z"/>
   <path class="fil0" d="M450 23l-2 0c-92,0 -164,0 -220,8 -57,8 -102,24 -138,59 -35,36 -51,81 -59,138 -8,56 -8,128 -8,220l0 4c0,92 0,164 8,220 8,57 24,102 59,138 36,35 81,51 138,59 56,8 128,8 220,8l4 0c92,0 164,0 220,-8 57,-8 102,-24 138,-59 35,-36 51,-81 59,-138 8,-56 8,-128 8,-220l0 -2c0,-16 -14,-30 -30,-30 -17,0 -30,14 -30,30 0,94 0,162 -7,214 0,2 0,4 -1,6l-110 -99c-51,-47 -128,-51 -185,-11l-12 8c-20,14 -46,11 -63,-6l-171 -170c-45,-45 -117,-47 -165,-5l-20 17c0,-71 1,-125 7,-168 7,-51 20,-81 42,-104 23,-22 53,-35 104,-42 52,-7 120,-7 214,-7 16,0 30,-13 30,-30 0,-16 -14,-30 -30,-30zm-360 641c7,51 20,81 42,104 23,22 53,35 104,42 52,7 120,7 214,7 94,0 162,0 214,-7 51,-7 81,-20 104,-42 9,-10 17,-21 24,-35 -2,-1 -3,-2 -5,-3l-128 -115c-31,-28 -77,-31 -111,-7l-12 9c-43,30 -102,25 -139,-13l-171 -170c-23,-23 -59,-24 -84,-3l-59 52c0,78 1,135 7,181z"/>
  </g>
 </g>
</svg>
