<?xml version="1.0" encoding="UTF-8"?>
<!DOCTYPE svg PUBLIC "-//W3C//DTD SVG 1.1//EN" "http://www.w3.org/Graphics/SVG/1.1/DTD/svg11.dtd">
<!-- Creator: CorelDRAW X7 -->
<svg xmlns="http://www.w3.org/2000/svg" xml:space="preserve" width="24mm" height="24mm" version="1.1" style="shape-rendering:geometricPrecision; text-rendering:geometricPrecision; image-rendering:optimizeQuality; fill-rule:evenodd; clip-rule:evenodd"
viewBox="0 0 2400 2400"
 xmlns:xlink="http://www.w3.org/1999/xlink">
 <defs>
  <style type="text/css">
   <![CDATA[
    .fil0 {fill:black}
   ]]>
  </style>
 </defs>
 <g id="Layer_x0020_1">
  <metadata id="CorelCorpID_0Corel-Layer"/>
  <g id="file-upload.svg">
   <path class="fil0" d="M355 818l8 0c73,-6 128,-68 125,-141 -5,-73 -68,-127 -140,-125 -73,3 -128,68 -125,141 2,70 62,125 132,125zm-62 -188c13,-15 34,-26 55,-26l5 0c44,0 80,37 80,81 0,44 -36,81 -80,81 -44,0 -81,-37 -81,-81 0,-21 8,-39 21,-55z"/>
   <path class="fil0" d="M2135 672l-694 -39 -6 -78c-7,-149 -135,-263 -286,-255l-882 49c-148,8 -263,138 -255,286l49 885 0 21c19,135 133,237 268,237l16 0 565 -31 0 15c-8,149 104,279 255,287l885 52 15 0c143,0 263,-112 271,-255l52 -885c10,-151 -104,-279 -253,-289zm-2016 -198c39,-44 93,-70 150,-73l885 -49c120,-8 224,86 232,205l5 73 -138 -8c-148,-7 -278,105 -286,255l-16 248 -247 278c-5,8 -16,11 -26,13 -10,0 -18,-2 -26,-10l-203 -182c-36,-34 -91,-29 -125,7l-211 237 -47 -833c-5,-59 16,-117 53,-161zm226 1249c-112,5 -211,-73 -229,-184l245 -274c5,-8 15,-10 26,-13 10,0 18,3 26,11l203 182c18,15 41,23 65,23 23,0 44,-13 60,-28l203 -229 -29 484 -570 28zm1991 -767l-52 884c-8,120 -112,214 -232,206l-885 -52c-119,-8 -213,-112 -205,-232l52 -885c8,-114 101,-205 218,-205l13 0 885 52c123,8 214,112 206,232z"/>
   <path class="fil0" d="M1966 1276l-440 -289c-54,-37 -127,-21 -161,34 -10,18 -18,36 -18,57l-31 523c-3,65 44,120 109,125l8 0c18,0 36,-5 52,-13l468 -234c58,-29 81,-99 52,-156 -10,-19 -23,-34 -39,-47zm-36 156l-469 234c-10,5 -20,8 -33,8 -11,0 -24,-5 -32,-11 -18,-13 -31,-33 -28,-57l31 -523c3,-23 16,-44 36,-55 21,-10 45,-7 65,3l435 289c31,21 39,60 18,88 -5,11 -13,19 -23,24z"/>
  </g>
 </g>
</svg>
