<?xml version="1.0" encoding="UTF-8"?>
<!DOCTYPE svg PUBLIC "-//W3C//DTD SVG 1.1//EN" "http://www.w3.org/Graphics/SVG/1.1/DTD/svg11.dtd">
<!-- Creator: CorelDRAW X7 -->
<svg xmlns="http://www.w3.org/2000/svg" xml:space="preserve" width="9mm" height="9mm" version="1.1" style="shape-rendering:geometricPrecision; text-rendering:geometricPrecision; image-rendering:optimizeQuality; fill-rule:evenodd; clip-rule:evenodd"
viewBox="0 0 900 900"
 xmlns:xlink="http://www.w3.org/1999/xlink">
 <defs>
  <style type="text/css">
   <![CDATA[
    .fil0 {fill:black}
   ]]>
  </style>
 </defs>
 <g id="Layer_x0020_1">
  <metadata id="CorelCorpID_0Corel-Layer"/>
  <g id="_2990591663952">
   <path class="fil0" d="M334 500c-17,0 -30,13 -30,29 0,16 13,30 30,30l232 0c17,0 30,-14 30,-30 0,-16 -13,-29 -30,-29l-232 0z"/>
   <path class="fil0" d="M450 33c-27,0 -52,8 -80,21 -26,12 -56,31 -94,55l-80 49c-36,23 -64,40 -87,57 -22,18 -40,36 -53,59 -12,23 -18,48 -21,77 -2,28 -2,62 -2,105l0 63c0,74 0,132 6,178 6,47 18,85 47,114 29,30 66,44 112,50 44,6 101,6 172,6l160 0c71,0 128,0 172,-6 46,-6 83,-20 112,-50 29,-29 41,-67 47,-114 6,-46 6,-104 6,-178l0 -63c0,-43 0,-77 -2,-105 -3,-29 -9,-54 -21,-77 -13,-23 -31,-41 -53,-59 -23,-17 -51,-34 -87,-57l-80 -49c-38,-24 -68,-43 -94,-55 -28,-13 -52,-21 -80,-21zm-144 126c39,-24 67,-42 90,-53 22,-11 38,-15 54,-15 16,0 32,4 54,15 23,11 51,29 90,53l78 48c37,23 64,40 83,55 19,14 30,26 38,40 7,14 11,30 14,54 2,25 2,57 2,102l0 59c0,76 0,131 -5,172 -6,41 -16,65 -32,82 -17,17 -39,27 -78,33 -40,5 -92,5 -166,5l-156 0c-74,0 -126,0 -166,-5 -39,-6 -61,-16 -78,-33 -16,-17 -26,-41 -32,-82 -5,-41 -5,-96 -5,-172l0 -59c0,-45 0,-77 2,-102 3,-24 7,-40 14,-54 8,-14 19,-26 38,-40 19,-15 46,-32 83,-55l78 -48z"/>
   <path class="fil0" d="M301 807c0,19 13,34 29,34 16,0 29,-15 29,-34l0 -271c0,-19 -13,-34 -29,-34 -16,0 -29,15 -29,34l0 271z"/>
   <path class="fil0" d="M540 807c0,19 13,34 29,34 16,0 29,-15 29,-34l0 -271c0,-19 -13,-34 -29,-34 -16,0 -29,15 -29,34l0 271z"/>
  </g>
 </g>
</svg>
