<?xml version="1.0" encoding="UTF-8"?>
<!DOCTYPE svg PUBLIC "-//W3C//DTD SVG 1.1//EN" "http://www.w3.org/Graphics/SVG/1.1/DTD/svg11.dtd">
<!-- Creator: CorelDRAW X7 -->
<svg xmlns="http://www.w3.org/2000/svg" xml:space="preserve" width="6mm" height="6mm" version="1.1" style="shape-rendering:geometricPrecision; text-rendering:geometricPrecision; image-rendering:optimizeQuality; fill-rule:evenodd; clip-rule:evenodd"
viewBox="0 0 600 600"
 xmlns:xlink="http://www.w3.org/1999/xlink">
 <defs>
  <style type="text/css">
   <![CDATA[
    .fil0 {fill:black}
   ]]>
  </style>
 </defs>
 <g id="Layer_x0020_1">
  <metadata id="CorelCorpID_0Corel-Layer"/>
  <g id="logout.svg">
   <path class="fil0" d="M127 314c-8,-8 -8,-20 0,-28l53 -53c8,-8 20,-8 28,0 8,8 8,20 0,28l-19 19 190 0c11,0 20,9 20,20 0,11 -9,20 -20,20l-190 0 19 19c8,8 8,20 0,28 -8,8 -20,8 -28,0l-53 -53z"/>
   <path class="fil0" d="M351 16l30 0c36,0 65,0 88,3 24,3 44,10 60,26 16,16 23,36 26,59 3,23 3,53 3,89l0 214c0,36 0,66 -3,89 -3,23 -10,43 -26,59 -16,16 -36,23 -60,26 -23,3 -52,3 -88,3l-30 0c-36,0 -65,0 -88,-3 -24,-3 -44,-10 -60,-26 -10,-10 -17,-23 -21,-37 -25,0 -46,0 -63,-2 -20,-3 -38,-9 -52,-23 -14,-14 -20,-31 -22,-52 -3,-19 -3,-43 -3,-73l0 -136c0,-30 0,-54 3,-73 2,-21 8,-38 22,-52 14,-14 32,-20 52,-23 17,-2 38,-2 63,-2 4,-14 11,-27 21,-37 16,-16 36,-23 60,-26 23,-3 52,-3 88,-3zm-177 416c0,17 1,33 2,47 -22,-1 -39,-1 -52,-3 -16,-2 -23,-6 -29,-11 -5,-5 -9,-13 -11,-29 -2,-16 -2,-38 -2,-70l0 -132c0,-32 0,-54 2,-70 2,-16 6,-24 11,-29 6,-5 13,-9 29,-11 13,-2 30,-2 52,-3 -1,14 -2,30 -2,47 0,11 9,19 20,20 11,0 20,-9 20,-20 0,-29 1,-50 4,-65 3,-15 7,-24 13,-30 8,-8 18,-12 37,-15 20,-3 47,-3 85,-3l26 0c38,0 65,0 85,3 19,3 30,7 37,15 7,7 12,17 15,37 2,20 2,46 2,84l0 212c0,38 0,64 -2,84 -3,20 -8,30 -15,37 -7,8 -18,12 -37,15 -20,3 -47,3 -85,3l-26 0c-38,0 -65,0 -85,-3 -19,-3 -29,-7 -37,-15 -6,-6 -10,-15 -13,-30 -3,-15 -4,-36 -4,-65 0,-11 -9,-20 -20,-20 -11,1 -20,9 -20,20z"/>
  </g>
 </g>
</svg>
